<?xml version="1.0" encoding="utf-8"?>
<svg xmlns="http://www.w3.org/2000/svg" viewBox="8.534 13.35 476.8491 466.515" width="476.849px" height="466.515px" preserveAspectRatio="none"><path style="fill: none; stroke: rgb(255, 198, 38); stroke-width: 14px;" d="M 8.534 13.35 C 43.157 15.796 72.681 12.084 105.935 18.662 C 135.676 24.545 179.806 22.999 209.288 18.834 C 236.141 15.039 259.923 28.115 286.335 22.891 C 308.286 18.548 332.871 27.232 354.821 22.891 C 384.385 17.042 413.93 25.753 443.563 25.753 C 452.131 25.753 475.613 24.061 481.182 29.568 C 485.994 34.328 484.057 67.464 482.361 72.499 C 475.955 91.504 477.611 117.808 481.182 135.464 C 484.6 152.368 480.099 169.816 482.992 186.982 C 488.811 221.517 482.865 244.732 477.324 277.613 C 473.904 297.905 482.232 322.118 477.324 341.532 C 471.493 364.599 481.395 387.863 481.395 411.176 C 481.395 426.324 478.596 435.579 482.361 449.844 L 479.253 479.865 C 479.253 479.865 455.625 476.049 453.209 476.049 C 425.796 476.049 397.774 477.958 370.254 477.958 C 322.651 477.958 262.682 481.054 214.956 473.188 C 179.198 467.293 131.465 459.364 95.347 466.509 C 73.678 470.796 31.709 462.668 16.251 477.958 C 13.991 480.193 17.215 467 17.215 464.601 C 17.215 454.263 20.961 443.218 23.003 433.119 C 28.73 404.802 17.215 339.625 17.215 339.625 C 17.215 339.625 11.314 258.145 20.109 214.648 C 23.451 198.124 17.306 179.766 20.109 163.131 C 22.215 150.637 17.79 131.503 19.896 119.006 C 25.862 83.599 13.358 48.152 13.358 16.212" id="object-0" transform="matrix(0.9999999999999999, 0, 0, 1, 0, -2.842170943040401e-14)"/></svg>