<?xml version="1.0" encoding="utf-8"?>
<svg xmlns="http://www.w3.org/2000/svg" viewBox="19.5228 1.5824 188.0492 30.4536" width="188.049px" height="30.4536px" preserveAspectRatio="none"><g id="object-0" transform="matrix(0.9999999999999999, 0, 0, 1, 0, 0)"><path style="fill: none; stroke: rgb(0, 0, 0);" d="M 27.561 29.961 C 27.561 30.302 26.519 29.694 26.414 29.633 C 25.497 29.11 24.543 28.002 23.956 27.121 C 23.285 26.115 22.637 25.029 22.099 23.954 C 21.933 23.621 21.869 22.577 21.662 22.37 C 21.233 21.94 20.634 21.132 20.297 20.458 C 19.906 19.676 19.783 18.96 19.642 18.11 C 19.591 17.806 19.533 17.553 19.533 17.236 C 19.533 17.088 19.51 16.777 19.533 16.799 C 19.794 17.061 20.761 16.967 21.116 17.018 C 22.477 17.212 24.737 17.089 25.758 18.11 C 26.851 15.196 30.119 13.25 33.186 13.25 C 34.218 13.25 35.086 13.403 36.08 13.686 C 36.174 13.713 36.982 13.986 37.008 13.959 C 38.052 12.916 39.352 11.811 40.777 10.956 C 40.89 10.888 41.797 10.228 41.869 10.3 C 42.396 10.827 42.321 12.671 42.47 13.413 C 42.644 14.283 42.234 16.22 42.579 16.909 C 43.117 17.984 43.186 20.526 43.016 21.715 C 42.953 22.157 42.688 22.786 42.688 23.189"/><path style="fill: none; stroke: rgb(0, 0, 0);" d="M 34.606 19.257 C 34.551 19.02 34.489 18.785 34.442 18.547 C 34.208 17.38 35.967 19.24 35.097 19.53 C 34.312 19.792 33.644 17.927 34.442 17.728 C 35.065 17.572 35.748 19.095 35.206 19.366 C 34.766 19.586 34.433 18.228 34.715 17.946 C 35.069 17.592 35.813 19.146 35.152 19.366 C 34.636 19.538 34.222 18.183 34.606 18.055 C 35.142 17.877 35.479 19.148 34.988 19.312 C 34.536 19.462 34.206 18.392 34.551 18.219 C 34.844 18.073 35.189 18.993 34.879 19.148 C 34.519 19.328 34.256 18.585 34.551 18.438 C 34.911 18.258 35.158 19.117 34.769 19.312 C 34.627 19.383 34.527 18.602 34.988 18.602"/><path style="fill: none; stroke: rgb(0, 0, 0);" d="M 30.018 21.059 C 29.12 18.904 31.29 21.109 30.455 21.387 C 29.698 21.639 28.955 20.03 29.636 19.803 C 30.297 19.583 30.983 21.284 30.346 21.496 C 29.842 21.664 29.286 20.382 29.745 20.076 C 30.245 19.743 30.822 21.087 30.455 21.332 C 30.015 21.625 29.557 20.498 29.854 20.349 C 30.234 20.159 30.625 21.367 30.073 21.551 C 29.74 21.662 29.335 20.359 29.69 20.24 C 30.232 20.059 30.459 21.239 30.073 21.496 C 29.32 21.998 29.331 20.725 29.581 20.349"/><path style="fill: none; stroke: rgb(0, 0, 0);" d="M 40.231 19.421 C 41.792 18.796 43.951 16.909 45.637 16.909"/><path style="fill: none; stroke: rgb(0, 0, 0);" d="M 40.176 21.605 C 42.079 20.971 44.385 20.076 46.402 20.076"/><path style="fill: none; stroke: rgb(0, 0, 0);" d="M 40.285 23.025 C 41.722 23.578 43.295 23.462 44.818 23.462"/><path style="fill: none; stroke: rgb(0, 0, 0);" d="M 26.359 24.991 C 25.243 25.438 24.156 25.874 23.082 26.411 C 22.658 26.624 22.018 27.23 21.499 27.23"/><path style="fill: none; stroke: rgb(0, 0, 0);" d="M 26.905 27.067 C 25.441 27.998 23.99 28.989 22.482 29.743"/><path style="fill: none; stroke: rgb(0, 0, 0);" d="M 27.834 27.777 C 27.065 29.161 26.172 30.663 25.485 32.036"/><path style="fill: none; stroke: rgb(0, 0, 0);" d="M 33.24 24.173 C 32.907 24.895 31.547 25.631 31.547 24.609"/><path style="fill: none; stroke: rgb(0, 0, 0);" d="M 33.786 23.844 C 34.455 24.179 35.916 25.048 35.916 23.408"/><path style="fill: none; stroke: rgb(0, 0, 0);" d="M 33.658 24.132 C 33.488 24.132 33.307 23.937 33.15 23.831 C 31.541 22.768 34.01 22.801 34.111 22.934 C 34.4 23.316 33.885 24.003 33.885 24.281"/><path style="fill: none; stroke: rgb(0, 0, 0);" d="M 33.513 23.681 C 33.513 23.408 33.596 23.325 33.786 23.135"/><path style="fill: none; stroke: rgb(0, 0, 0);" d="M 157.603 10.898 C 157.603 10.161 160.053 9.621 160.58 9.516 C 162.993 9.033 169.469 9.113 170.787 11.748 C 171.025 12.226 171.85 12.808 171.85 13.237 C 171.85 15.539 170.294 18.485 172.594 20.785 C 173.041 21.233 173.616 22.773 174.827 22.168 C 179.162 20 174.874 12.599 170.787 12.599"/><path style="fill: none; stroke: rgb(0, 0, 0);" d="M 156.753 11.642 C 154.211 10.371 151.062 14.042 150.374 16.107 C 150.03 17.139 150.154 18.32 150.48 19.297 C 150.572 19.572 151.65 20.375 151.65 20.041 C 154.58 19.065 154.821 16.588 155.69 13.981 C 155.904 13.338 156.753 11.958 156.753 11.642 Z"/><path style="fill: none; stroke: rgb(0, 0, 0);" d="M 154.095 19.191 C 154.095 21.053 154.247 22.957 155.371 24.081 C 159.558 28.269 172.169 27.191 172.169 20.785"/><path style="fill: none; stroke: rgb(0, 0, 0);" d="M 159.198 16.214 C 158.705 15.721 160.32 18.21 158.667 17.383 C 157.771 16.935 158.807 15.716 159.304 16.214 C 159.615 16.524 159.632 17.866 158.879 17.49 C 158.051 17.075 158.412 15.853 159.517 16.958"/><path style="fill: none; stroke: rgb(0, 0, 0);" d="M 165.046 17.49 C 165.319 15.579 166.715 16.808 166.321 17.596 C 165.989 18.261 164.649 16.731 165.258 16.426 C 165.672 16.22 166.909 16.74 166.534 17.49 C 166.164 18.229 164.962 17.232 165.258 16.639 C 165.74 15.674 166.428 16.994 166.428 17.49"/><path style="fill: none; stroke: rgb(0, 0, 0);" d="M 162.281 18.872 C 161.725 18.037 163.345 18.765 162.813 19.297 C 162.57 19.54 161.276 19.393 161.431 19.084 C 161.8 18.346 163.679 18.962 163.344 19.297 C 162.971 19.67 161.715 19.366 162.069 18.659 C 162.341 18.115 163.322 18.599 163.026 19.191 C 162.752 19.738 161.505 18.797 161.856 18.446 C 162.305 17.998 163.106 18.604 162.813 19.191 C 162.596 19.624 161.132 19.064 161.431 18.765 C 162.008 18.189 162.801 19.403 162.281 19.403 C 162.218 19.975 162.199 20.868 161.856 21.211 C 161.331 21.735 158.213 21.452 158.986 20.679"/><path style="fill: none; stroke: rgb(0, 0, 0);" d="M 162.6 20.998 C 162.6 22.499 165.471 22.554 165.471 21.423"/><path style="fill: none; stroke: rgb(0, 0, 0);" d="M 156.647 25.038 C 156.3 25.384 155.284 26.227 155.796 26.739 C 156.427 27.37 158.017 27.047 158.56 27.59 C 159.179 28.209 161.1 28.015 162.175 28.015 C 164.804 28.015 169.83 28.387 169.83 25.357"/><path style="fill: none; stroke: rgb(0, 0, 0);" d="M 169.83 27.058 C 170.056 27.398 171.531 28.385 171.531 28.547"/><path style="fill: none; stroke: rgb(0, 0, 0);" d="M 155.158 26.314 C 153.971 26.71 152.111 27.058 151.224 27.058"/><path style="fill: none; stroke: rgb(0, 0, 0);" d="M 179.611 11.217 C 179.09 11.217 179.273 15.286 180.461 15.682 C 181.686 16.09 181.95 12.918 181.95 12.918 C 181.95 12.918 182.786 17.038 184.183 16.107 C 185.241 15.402 186.016 11.456 185.352 10.792"/><path style="fill: none; stroke: rgb(0, 0, 0);" d="M 188.967 12.28 C 185.956 13.57 186.912 17.348 189.817 15.895 C 192.127 14.74 191.919 9.794 188.648 11.429"/><path style="fill: none; stroke: rgb(0, 0, 0);" d="M 195.665 11.642 C 194.155 12.264 193.538 12.36 192.794 13.662 C 191.548 15.843 194.071 16.905 195.984 16.426 C 199.043 15.662 198.373 11.429 195.24 11.429"/><path style="fill: none; stroke: rgb(0, 0, 0);" d="M 200.449 13.556 C 201.845 13.246 203.259 12.493 203.851 11.11 C 204.051 10.644 204.549 9.359 203.745 9.09 C 202.738 8.755 201.974 10.741 201.725 11.323 C 201.015 12.98 199.576 16.928 200.874 18.659 C 202.287 20.543 204.777 18.027 203.532 16.533 C 202.55 15.355 200.615 15.659 199.386 15.044"/><path style="fill: none; stroke: rgb(0, 0, 0);" d="M 207.572 9.09 C 206.911 11.075 206.615 13.076 206.615 15.151"/><path style="fill: none; stroke: rgb(0, 0, 0);" d="M 206.828 17.49 C 206.66 16.817 206.084 17.973 206.084 16.852"/><path style="fill: none; stroke: rgb(0, 0, 0);" d="M 49.049 17.588 C 49.078 17.485 49.925 10.4 49.925 10.4 C 49.925 10.4 50.177 11.309 50.802 11.101 C 51.79 10.772 52.279 9.624 52.905 8.998 C 53.579 8.324 55.36 16.111 55.36 15.484"/><path style="fill: none; stroke: rgb(0, 0, 0);" d="M 57.639 14.432 C 58.525 13.767 59.418 13.3 59.742 12.328 C 59.873 11.937 59.442 10.525 58.866 11.101 C 56.858 13.109 57.738 19.366 60.443 15.309"/><path style="fill: none; stroke: rgb(0, 0, 0);" d="M 62.898 11.101 C 62.868 11.282 62.19 14.044 62.372 15.133 C 62.99 18.842 66.049 15.174 66.228 13.205 C 66.513 10.078 62.547 8.712 62.547 11.802"/><path style="fill: none; stroke: rgb(0, 0, 0);" d="M 67.806 9.874 C 67.928 10.526 67.886 13.996 69.734 13.38 C 70.717 13.053 70.611 9.365 70.611 10.4 C 70.611 15.894 76.235 11.992 72.715 8.472"/><path style="fill: none; stroke: rgb(0, 0, 0);" d="M 77.448 4.79 C 77.448 7.147 78.324 9.52 78.324 11.627"/><path style="fill: none; stroke: rgb(0, 0, 0);" d="M 78.675 13.556 C 80.434 13.907 79.328 14.081 78.675 14.081"/><path style="fill: none; stroke: rgb(0, 0, 0);" d="M 157.035 7.771 C 155.888 5.476 153.492 3.808 156.158 5.141"/><path style="fill: none; stroke: rgb(0, 0, 0);" d="M 164.748 7.42 C 164.957 6.305 165.449 2.955 165.449 4.089"/><path style="fill: none; stroke: rgb(0, 0, 0);" d="M 171.059 7.771 C 171.768 7.062 173.513 5.506 173.513 4.966"/><path style="fill: none; stroke: rgb(0, 0, 0);" d="M 36.252 7.42 C 36.83 5.685 36.575 1.054 37.479 2.862"/><path style="fill: none; stroke: rgb(0, 0, 0);" d="M 39.933 7.595 C 40.676 6.64 45.636 0.315 44.14 1.81"/><path style="fill: none; stroke: rgb(0, 0, 0);" d="M 44.316 8.822 C 46.034 7.749 47.373 5.492 49.399 5.492"/></g></svg>